USFL
nRows=117
nColumns=2
inDegrees=yes
endheader
time	soleus_r	
2.9375	 48.977075	
3	 48.819122	
3.0625	 48.539704	
3.125	 48.676172	
3.1875	 48.729115	
3.25	 48.690204	
3.3125	 48.762671	
3.375	 48.682438	
3.4375	 48.740387	
3.5	 48.740196	
3.5625	 48.748364	
3.625	 48.849171	
3.6875	 48.867178	
3.75	 48.820469	
3.8125	 48.813724	
3.875	 48.710624	
3.9375	 48.854965	
4	 48.983573	
4.0625	 48.715047	
4.125	 48.892144	
4.1875	 48.878130	
4.25	 48.982601	
4.3125	 48.999407	
4.375	 48.995372	
4.4375	 48.973239	
4.5	 48.986024	
4.5625	 49.076725	
4.625	 49.250744	
4.6875	 49.162937	
4.75	 48.950085	
4.8125	 48.993275	
4.875	 49.111529	
4.9375	 48.386721	
5	 48.243084	
5.0625	 40.619642	
5.125	 40.628837	
5.1875	 40.175188	
5.25	 39.909986	
5.3125	 30.013891	
5.375	 29.667453	
5.4375	 29.550172	
5.5	 29.709723	
5.5625	 29.358145	
5.625	 29.126261	
5.6875	 29.179170	
5.75	 28.957944	
5.8125	 28.774710	
5.875	 28.579222	
5.9375	 28.244997	
6	 27.847490	
6.0625	 28.081261	
6.125	 28.395459	
6.1875	 28.599730	
6.25	 28.733294	
6.3125	 25.585683	
6.375	 25.555278	
6.4375	 25.479156	
6.5	 25.497898	
6.5625	 25.562968	
6.625	 25.516350	
6.6875	 25.395687	
6.75	 25.302808	
6.8125	 25.423226	
6.875	 25.318463	
6.9375	 25.392440	
7	 25.513647	
7.0625	 25.650236	
7.125	 25.687504	
7.1875	 25.688213	
7.25	 25.687174	
7.3125	 25.764171	
7.375	 25.793712	
7.4375	 25.831515	
7.5	 25.811532	
7.5625	 25.884967	
7.625	 25.856554	
7.6875	 25.864304	
7.75	 25.993323	
7.8125	 26.116193	
7.875	 26.241184	
7.9375	 26.284804	
8	 26.168832	
8.0625	 25.983061	
8.125	 25.784512	
8.1875	 25.973766	
8.25	 25.950790	
8.3125	 25.889200	
8.375	 25.759702	
8.4375	 25.819284	
8.5	 25.959056	
8.5625	 25.926163	
8.625	 25.850710	
8.6875	 25.841084	
8.75	 25.731230	
8.8125	 25.654754	
8.875	 25.467969	
8.9375	 25.575490	
9	 25.598230	
9.0625	 25.600508	
9.125	 25.685756	
9.1875	 25.646663	
9.25	 25.567300	
9.3125	 25.592778	
9.375	 25.678291	
9.4375	 25.972754	
9.5	 26.624726	
9.5625	 26.713056	
9.625	 35.922624	
9.6875	 36.575903	
9.75	 36.748283	
9.8125	 37.070303	
9.875	 36.732949	
9.9375	 36.861600	
10	 37.457717	
10.0625	 37.975687	
10.125	 37.891541	
10.1875	 37.528033	
